<svg id="Layer_1" data-name="Layer 1" xmlns="http://www.w3.org/2000/svg" viewBox="0 0 30 24"><title>Artboard 2</title><path id="instagram" d="M24,24H6a3,3,0,0,1-3-3V3A3,3,0,0,1,6,0H24a3,3,0,0,1,3,3V21A3,3,0,0,1,24,24ZM15,7.35A4.65,4.65,0,0,0,10.78,10h0l0,.05c0,.1-.08.2-.12.3l-.05.15c0,.1-.06.21-.09.32l0,.15c0,.11,0,.23-.06.34s0,.09,0,.14a4.65,4.65,0,1,0,9.25,0s0-.09,0-.14,0-.23-.06-.34l0-.15c0-.11-.06-.21-.09-.32l-.05-.15c0-.1-.08-.2-.12-.3l0-.05h0A4.65,4.65,0,0,0,15,7.35ZM24.3,3.9a1.2,1.2,0,0,0-1.2-1.2H20.7a1.2,1.2,0,0,0-1.2,1.2V6.3a1.2,1.2,0,0,0,1.2,1.2h2.4a1.2,1.2,0,0,0,1.2-1.2Zm0,6.15H22.09A7.35,7.35,0,1,1,7.91,10H5.7v10a1.2,1.2,0,0,0,1.2,1.2H23.1a1.2,1.2,0,0,0,1.2-1.2Z" style="fill:#231f20;fill-rule:evenodd"/></svg>