<svg id="Layer_1" data-name="Layer 1" xmlns="http://www.w3.org/2000/svg" viewBox="0 0 30 24"><title>Artboard 1</title><path d="M29.76,2.84a11.87,11.87,0,0,1-3.48,1A6.06,6.06,0,0,0,29,.44,12.23,12.23,0,0,1,25.1,1.91,6.07,6.07,0,0,0,14.62,6.06a6.29,6.29,0,0,0,.16,1.39A17.21,17.21,0,0,1,2.29,1.11,6.06,6.06,0,0,0,4.17,9.2a5.9,5.9,0,0,1-2.75-.76v.08a6.07,6.07,0,0,0,4.86,5.94,6.24,6.24,0,0,1-1.6.21,6,6,0,0,1-1.14-.11,6.07,6.07,0,0,0,5.66,4.22,12.15,12.15,0,0,1-7.52,2.59,11.68,11.68,0,0,1-1.45-.09A17.1,17.1,0,0,0,9.52,24c11.15,0,17.24-9.23,17.24-17.24,0-.27,0-.53,0-.79a12.28,12.28,0,0,0,3-3.14" style="fill:#00cfff"/></svg>